<svg xmlns="http://www.w3.org/2000/svg" viewBox="0 0 192 192" width="192" height="192">
  <defs>
    <linearGradient id="bgGrad" x1="0%" y1="0%" x2="100%" y2="100%">
      <stop offset="0%" stop-color="#020617"/>
      <stop offset="100%" stop-color="#082f49"/>
    </linearGradient>
    <linearGradient id="dropGrad" x1="0%" y1="0%" x2="100%" y2="100%">
      <stop offset="0%" stop-color="#38bdf8"/>
      <stop offset="60%" stop-color="#06b6d4"/>
      <stop offset="100%" stop-color="#0284c7"/>
    </linearGradient>
    <filter id="glow" x="-20%" y="-20%" width="140%" height="140%">
      <feGaussianBlur stdDeviation="6" result="blur" />
      <feComposite in="SourceGraphic" in2="blur" operator="over"/>
    </filter>
  </defs>
  <rect width="192" height="192" rx="42" fill="url(#bgGrad)"/>
  <circle cx="96" cy="96" r="64" fill="#06b6d4" opacity="0.12" filter="url(#glow)"/>
  <path d="M96 38 C96 38, 54 84, 54 116 C54 139.2 72.8 158 96 158 C119.2 158, 138 139.2, 138 116 C138 84, 96 38, 96 38 Z" fill="url(#dropGrad)"/>
  <path d="M84 66 C84 66, 68 96, 68 114 C68 122, 73 130, 80 134 C74 126, 74 114, 82 98 C86 90, 88 80, 84 66 Z" fill="#ffffff" opacity="0.35"/>
</svg>
